<svg width="16" height="16" viewBox="0 0 16 16" fill="none" xmlns="http://www.w3.org/2000/svg">
<path d="M12.1347 3.30443C12.3421 3.10701 12.618 2.99787 12.9043 3.00003C13.1906 3.0022 13.4649 3.1155 13.6692 3.31604C13.8736 3.51657 13.992 3.78865 13.9996 4.07486C14.0072 4.36108 13.9033 4.63903 13.7098 4.85009L7.83628 12.1957C7.73529 12.3044 7.61339 12.3917 7.47788 12.4523C7.34238 12.5129 7.19604 12.5456 7.04763 12.5483C6.89922 12.5511 6.75177 12.5239 6.61412 12.4683C6.47646 12.4128 6.35141 12.3301 6.24646 12.2251L2.35139 8.33003C2.24292 8.22896 2.15592 8.10707 2.09558 7.97164C2.03523 7.83622 2.00279 7.69002 2.00017 7.54178C1.99756 7.39354 2.02483 7.24629 2.08035 7.10882C2.13588 6.97134 2.21853 6.84646 2.32337 6.74163C2.42821 6.63679 2.55309 6.55414 2.69056 6.49861C2.82803 6.44308 2.97528 6.41581 3.12352 6.41843C3.27176 6.42105 3.41796 6.45349 3.55338 6.51384C3.68881 6.57418 3.8107 6.66118 3.91177 6.76965L6.99426 9.85067L12.1067 3.33681C12.1159 3.32548 12.1258 3.31467 12.1362 3.30443H12.1347Z" fill="#F2F2F2"/>
</svg>
