<svg width="22" height="20" viewBox="0 0 22 20" fill="none" xmlns="http://www.w3.org/2000/svg">
<path d="M14.2178 7.42855C15.0458 7.42855 15.7178 8.10055 15.7178 8.92855V14.7134C15.7178 15.9639 15.221 17.1633 14.3368 18.0475C13.4525 18.9318 12.2532 19.4286 11.0026 19.4286C9.75211 19.4286 8.55279 18.9318 7.66853 18.0475C6.78427 17.1633 6.2875 15.9639 6.2875 14.7134V8.92855C6.2875 8.10055 6.95864 7.42855 7.7875 7.42855H14.2178ZM2.21436 7.42855L5.97036 7.42684C5.66148 7.79903 5.47553 8.25778 5.43807 8.73998L5.4295 8.92855V14.7134C5.4295 15.6846 5.67893 16.5983 6.11521 17.3937C5.528 17.6499 4.88622 17.7559 4.24781 17.702C3.6094 17.6481 2.99447 17.436 2.45851 17.085C1.92256 16.734 1.48247 16.255 1.17797 15.6913C0.87346 15.1276 0.714129 14.4969 0.714356 13.8563V8.92855C0.714583 8.53065 0.872809 8.14912 1.15425 7.86784C1.43569 7.58656 1.81731 7.42855 2.21521 7.42855H2.21436ZM16.0349 7.42684L19.7858 7.42855C20.6138 7.42855 21.2858 8.10055 21.2858 8.92855V13.8571C21.286 14.4976 21.1268 15.128 20.8225 15.6915C20.5182 16.255 20.0784 16.7338 19.5427 17.0849C19.0071 17.4359 18.3924 17.648 17.7543 17.702C17.1161 17.7561 16.4746 17.6504 15.8875 17.3946L15.9355 17.3071C16.3032 16.6103 16.5269 15.8251 16.5681 14.9928L16.5749 14.7134V8.92855C16.5749 8.3577 16.3718 7.83484 16.0349 7.42684ZM11.0001 0.571411C11.394 0.571411 11.7841 0.649008 12.1481 0.799772C12.5121 0.950537 12.8428 1.17152 13.1214 1.45009C13.4 1.72867 13.6209 2.05938 13.7717 2.42336C13.9225 2.78734 14.0001 3.17745 14.0001 3.57141C14.0001 3.96538 13.9225 4.35548 13.7717 4.71946C13.6209 5.08344 13.4 5.41416 13.1214 5.69273C12.8428 5.97131 12.5121 6.19229 12.1481 6.34305C11.7841 6.49381 11.394 6.57141 11.0001 6.57141C10.2044 6.57141 9.44136 6.25534 8.87875 5.69273C8.31614 5.13012 8.00007 4.36706 8.00007 3.57141C8.00007 2.77576 8.31614 2.0127 8.87875 1.45009C9.44136 0.887482 10.2044 0.571411 11.0001 0.571411ZM17.8598 1.42855C18.1975 1.42855 18.5318 1.49507 18.8438 1.62429C19.1558 1.75352 19.4393 1.94293 19.6781 2.18171C19.9168 2.42049 20.1062 2.70396 20.2355 3.01594C20.3647 3.32792 20.4312 3.6623 20.4312 3.99998C20.4312 4.33767 20.3647 4.67205 20.2355 4.98403C20.1062 5.29601 19.9168 5.57948 19.6781 5.81826C19.4393 6.05704 19.1558 6.24645 18.8438 6.37567C18.5318 6.5049 18.1975 6.57141 17.8598 6.57141C17.1778 6.57141 16.5237 6.30049 16.0415 5.81826C15.5593 5.33602 15.2884 4.68197 15.2884 3.99998C15.2884 3.318 15.5593 2.66394 16.0415 2.18171C16.5237 1.69947 17.1778 1.42855 17.8598 1.42855ZM4.14036 1.42855C4.47804 1.42855 4.81242 1.49507 5.1244 1.62429C5.43638 1.75352 5.71985 1.94293 5.95863 2.18171C6.19741 2.42049 6.38682 2.70396 6.51605 3.01594C6.64527 3.32792 6.71178 3.6623 6.71178 3.99998C6.71178 4.33767 6.64527 4.67205 6.51605 4.98403C6.38682 5.29601 6.19741 5.57948 5.95863 5.81826C5.71985 6.05704 5.43638 6.24645 5.1244 6.37567C4.81242 6.5049 4.47804 6.57141 4.14036 6.57141C3.45837 6.57141 2.80432 6.30049 2.32208 5.81826C1.83984 5.33602 1.56893 4.68197 1.56893 3.99998C1.56893 3.318 1.83984 2.66394 2.32208 2.18171C2.80432 1.69947 3.45837 1.42855 4.14036 1.42855Z" fill="#686A7E"/>
</svg>