<svg width="24" height="24" viewBox="0 0 24 24" fill="none" xmlns="http://www.w3.org/2000/svg">
<rect x="0.5" y="0.5" width="23" height="23" rx="11.5" fill="#29BA7F" stroke="url(#paint0_linear_3801_514544)"/>
<path d="M16.1347 7.30443C16.3421 7.10701 16.618 6.99787 16.9043 7.00003C17.1906 7.0022 17.4649 7.1155 17.6692 7.31604C17.8736 7.51657 17.992 7.78865 17.9996 8.07486C18.0072 8.36108 17.9033 8.63903 17.7098 8.85009L11.8363 16.1957C11.7353 16.3044 11.6134 16.3917 11.4779 16.4523C11.3424 16.5129 11.196 16.5456 11.0476 16.5483C10.8992 16.5511 10.7518 16.5239 10.6141 16.4683C10.4765 16.4128 10.3514 16.3301 10.2465 16.2251L6.35139 12.33C6.24292 12.229 6.15592 12.1071 6.09558 11.9716C6.03523 11.8362 6.00279 11.69 6.00017 11.5418C5.99756 11.3935 6.02483 11.2463 6.08035 11.1088C6.13588 10.9713 6.21853 10.8465 6.32337 10.7416C6.42821 10.6368 6.55309 10.5541 6.69056 10.4986C6.82803 10.4431 6.97528 10.4158 7.12352 10.4184C7.27176 10.421 7.41796 10.4535 7.55338 10.5138C7.68881 10.5742 7.8107 10.6612 7.91177 10.7697L10.9943 13.8507L16.1067 7.33681C16.1159 7.32548 16.1258 7.31467 16.1362 7.30443H16.1347Z" fill="#F2F2F2"/>
<defs>
<linearGradient id="paint0_linear_3801_514544" x1="12" y1="0" x2="12" y2="24" gradientUnits="userSpaceOnUse">
<stop stop-color="white" stop-opacity="0.33"/>
<stop offset="1" stop-color="#0D5236" stop-opacity="0.79"/>
</linearGradient>
</defs>
</svg>
