<svg width="24" height="24" viewBox="0 0 24 24" fill="none" xmlns="http://www.w3.org/2000/svg">
<rect x="0.5" y="0.5" width="23" height="23" rx="11.5" fill="url(#paint0_radial_3801_517438)" stroke="url(#paint1_linear_3801_517438)"/>
<g clip-path="url(#clip0_3801_517438)">
<path fill-rule="evenodd" clip-rule="evenodd" d="M11.9971 13.4141L15.5325 16.9501C15.7201 17.1377 15.9745 17.2431 16.2398 17.2431C16.5051 17.2431 16.7595 17.1377 16.9471 16.9501C17.1347 16.7625 17.2401 16.508 17.2401 16.2427C17.2401 15.9774 17.1347 15.723 16.9471 15.5354L13.4105 12.0001L16.9465 8.46474C17.0393 8.37185 17.1129 8.26159 17.1632 8.14024C17.2134 8.01889 17.2392 7.88884 17.2392 7.7575C17.2392 7.62617 17.2133 7.49613 17.163 7.37481C17.1127 7.25348 17.039 7.14325 16.9461 7.05041C16.8532 6.95756 16.743 6.88392 16.6216 6.83369C16.5003 6.78346 16.3702 6.75762 16.2389 6.75766C16.1076 6.75769 15.9775 6.78358 15.8562 6.83387C15.7349 6.88416 15.6246 6.95785 15.5318 7.05074L11.9971 10.5861L8.4618 7.05074C8.3696 6.95519 8.25929 6.87895 8.13731 6.82649C8.01533 6.77402 7.88412 6.74638 7.75135 6.74516C7.61857 6.74394 7.48688 6.76918 7.36396 6.81941C7.24104 6.86963 7.12935 6.94383 7.03541 7.03768C6.94148 7.13153 6.86717 7.24314 6.81683 7.36601C6.76649 7.48889 6.74113 7.62055 6.74222 7.75333C6.74331 7.88611 6.77084 8.01734 6.82319 8.13937C6.87554 8.2614 6.95167 8.37178 7.04713 8.46407L10.5838 12.0001L7.0478 15.5354C6.8602 15.723 6.75481 15.9774 6.75481 16.2427C6.75481 16.508 6.8602 16.7625 7.0478 16.9501C7.2354 17.1377 7.48983 17.2431 7.75513 17.2431C8.02043 17.2431 8.27487 17.1377 8.46247 16.9501L11.9971 13.4134V13.4141Z" fill="#F2F2F2"/>
</g>
<defs>
<radialGradient id="paint0_radial_3801_517438" cx="0" cy="0" r="1" gradientUnits="userSpaceOnUse" gradientTransform="translate(12) rotate(90) scale(24)">
<stop stop-color="#77EBBC"/>
<stop offset="0.0001" stop-color="#E45D64"/>
<stop offset="0.388542" stop-color="#A42128"/>
<stop offset="1" stop-color="#5A0A0F"/>
</radialGradient>
<linearGradient id="paint1_linear_3801_517438" x1="12" y1="0" x2="12" y2="24" gradientUnits="userSpaceOnUse">
<stop stop-color="white" stop-opacity="0.33"/>
<stop offset="1" stop-color="#75151A" stop-opacity="0.79"/>
</linearGradient>
<clipPath id="clip0_3801_517438">
<rect width="16" height="16" fill="white" transform="translate(4 4)"/>
</clipPath>
</defs>
</svg>
