<svg width="16" height="16" viewBox="0 0 16 16" fill="none" xmlns="http://www.w3.org/2000/svg">
<g id="timer">
<path id="Vector" d="M6.66688 2.00033H9.33355C9.70022 2.00033 10.0002 1.70033 10.0002 1.33366C10.0002 0.966992 9.70022 0.666992 9.33355 0.666992H6.66688C6.30022 0.666992 6.00022 0.966992 6.00022 1.33366C6.00022 1.70033 6.30022 2.00033 6.66688 2.00033ZM12.6869 4.92699L13.1869 4.42699C13.3102 4.30296 13.3793 4.1352 13.3793 3.96033C13.3793 3.78546 13.3102 3.61769 13.1869 3.49366L13.1802 3.48699C13.0562 3.36372 12.8884 3.29453 12.7136 3.29453C12.5387 3.29453 12.3709 3.36372 12.2469 3.48699L11.7469 3.98699C10.6851 3.13254 9.3631 2.66679 8.00022 2.66699C4.80022 2.66699 2.08022 5.30699 2.00022 8.50699C1.97866 9.30833 2.11793 10.1059 2.40981 10.8525C2.70168 11.5991 3.14024 12.2796 3.69958 12.8539C4.25891 13.4281 4.92766 13.8844 5.66633 14.1958C6.40499 14.5073 7.19859 14.6675 8.00022 14.667C9.12976 14.6676 10.2365 14.3491 11.193 13.7483C12.1494 13.1475 12.9167 12.2887 13.4065 11.2708C13.8963 10.253 14.0886 9.1175 13.9612 7.99516C13.8339 6.87282 13.3922 5.80927 12.6869 4.92699ZM8.66688 8.66699C8.66688 9.03366 8.36688 9.33366 8.00022 9.33366C7.63355 9.33366 7.33355 9.03366 7.33355 8.66699V6.00033C7.33355 5.63366 7.63355 5.33366 8.00022 5.33366C8.36688 5.33366 8.66688 5.63366 8.66688 6.00033V8.66699Z" fill="#686A7E"/>
</g>
</svg>
