<svg width="12" height="13" viewBox="0 0 12 13" fill="none" xmlns="http://www.w3.org/2000/svg">
<g id="ep:arrow-down-bold">
<path id="Vector" d="M1.2274 4.46959C1.36805 4.32899 1.55878 4.25 1.75765 4.25C1.95653 4.25 2.14726 4.32899 2.2879 4.46959L6.0004 8.18209L9.7129 4.46959C9.85435 4.33297 10.0438 4.25738 10.2405 4.25908C10.4371 4.26079 10.6252 4.33967 10.7643 4.47873C10.9033 4.61778 10.9822 4.80589 10.9839 5.00254C10.9856 5.19919 10.91 5.38864 10.7734 5.53009L6.53065 9.77284C6.39001 9.91344 6.19928 9.99243 6.0004 9.99243C5.80153 9.99243 5.6108 9.91344 5.47015 9.77284L1.2274 5.53009C1.0868 5.38944 1.00781 5.19871 1.00781 4.99984C1.00781 4.80097 1.0868 4.61024 1.2274 4.46959V4.46959Z" fill="#A9AAB6"/>
</g>
</svg>
