<svg width="16" height="16" viewBox="0 0 16 16" fill="none" xmlns="http://www.w3.org/2000/svg">
<g id="full money bag">
<g id="Vector">
<path d="M7 9.75C7 9.51754 7.17528 9.24349 7.5 9.09966V10.4003C7.17528 10.2565 7 9.98246 7 9.75Z" fill="#686A7E"/>
<path d="M9 12.25C9 12.4825 8.82472 12.7565 8.5 12.9003V11.5997C8.82472 11.7435 9 12.0175 9 12.25Z" fill="#686A7E"/>
<path fill-rule="evenodd" clip-rule="evenodd" d="M14.8549 10.8457C14.8549 14 11.9978 15.4171 7.99777 15.4171C3.99777 15.4171 1.14062 14 1.14062 10.8685C1.14062 7.43997 2.85491 5.15425 6.28348 3.42854L4.93491 1.67997C4.8664 1.56599 4.82924 1.43593 4.82719 1.30296C4.82515 1.16999 4.8583 1.03885 4.92327 0.922821C4.98825 0.806793 5.08275 0.710005 5.19718 0.642268C5.31162 0.57453 5.44193 0.538252 5.57491 0.537109H10.4206C10.5536 0.538252 10.6839 0.57453 10.7984 0.642268C10.9128 0.710005 11.0073 0.806793 11.0723 0.922821C11.1372 1.03885 11.1704 1.16999 11.1683 1.30296C11.1663 1.43593 11.1291 1.56599 11.0606 1.67997L9.71205 3.41711C13.1406 5.1314 14.8549 7.41711 14.8549 10.8457ZM8.5 8C8.5 7.72386 8.27614 7.5 8 7.5C7.72386 7.5 7.5 7.72386 7.5 8V8.05671C6.68409 8.24335 6 8.87679 6 9.75C6 10.6232 6.68409 11.2567 7.5 11.4433V12.9003C7.17528 12.7565 7 12.4825 7 12.25C7 11.9739 6.77614 11.75 6.5 11.75C6.22386 11.75 6 11.9739 6 12.25C6 13.1232 6.68409 13.7567 7.5 13.9433V14C7.5 14.2761 7.72386 14.5 8 14.5C8.27614 14.5 8.5 14.2761 8.5 14V13.9433C9.31591 13.7567 10 13.1232 10 12.25C10 11.3768 9.31591 10.7433 8.5 10.5567V9.09966C8.82472 9.24349 9 9.51754 9 9.75C9 10.0261 9.22386 10.25 9.5 10.25C9.77614 10.25 10 10.0261 10 9.75C10 8.87679 9.31591 8.24335 8.5 8.05671V8Z" fill="#686A7E"/>
</g>
</g>
</svg>
